<svg xmlns="http://www.w3.org/2000/svg" version="1.1" xmlns:xlink="http://www.w3.org/1999/xlink"
    xmlns:svgjs="http://svgjs.dev/svgjs" width="1440" height="560" preserveAspectRatio="none" viewBox="0 0 1440 560">
    <g mask="url(&quot;#SvgjsMask1000&quot;)" fill="none">
        <rect width="1440" height="560" x="0" y="0" fill="#fff"></rect><!-- 0e2a47 -->
        <path
            d="M0,481.612C89.95,460.422,175.361,440.979,260.856,405.9C365.243,363.07,499.509,351.648,555.503,253.69C611.459,155.798,558.48,33.483,537.009,-77.21C516.548,-182.698,502.198,-293.002,433.445,-375.582C364.052,-458.931,256.774,-491.941,156.772,-533.918C44.368,-581.1,-67.441,-661.081,-186.717,-635.9C-307.514,-610.398,-404.234,-510.319,-464.747,-402.706C-520.207,-304.079,-508.765,-185.436,-503.584,-72.404C-499.221,22.771,-459.385,106.993,-437.137,199.634C-408.47,319,-457.093,484.187,-353.933,550.731C-250.831,617.237,-119.422,509.745,0,481.612"
            fill="#fff9cc"></path><!-- 0b2239 -->
        <path
            d="M1440 945.251C1511.066 943.001 1562.856 882.525 1624.47 847.0409999999999 1689.857 809.384 1785.274 800.5260000000001 1813.09 730.385 1841.084 659.794 1767.153 589.682 1756.339 514.517 1745.526 439.363 1799.7640000000001 348.73 1749.936 291.439 1700.088 234.125 1601.901 278.058 1529.827 254.07799999999997 1453.663 228.73700000000002 1398.968 140.58800000000002 1319.049 148.07799999999997 1238.7069999999999 155.608 1171.767 222.38600000000002 1130.175 291.535 1091.306 356.156 1105.717 435.968 1100.6309999999999 511.206 1095.964 580.232 1074.603 650.843 1101.577 714.552 1128.844 778.954 1190.081 819.5699999999999 1247.868 858.963 1307.077 899.325 1368.378 947.518 1440 945.251"
            fill="#80bfff"></path><!-- 113255 -->
    </g>
    <defs>
        <mask id="SvgjsMask1000">
            <rect width="1440" height="560" fill="#ffffff"></rect>
        </mask>
    </defs>
</svg>